<?xml version="1.0" standalone="no"?>
<!DOCTYPE svg PUBLIC "-//W3C//DTD SVG 20010904//EN"
 "http://www.w3.org/TR/2001/REC-SVG-20010904/DTD/svg10.dtd">
<svg version="1.0" xmlns="http://www.w3.org/2000/svg"
 width="192.000000pt" height="192.000000pt" viewBox="0 0 192.000000 192.000000"
 preserveAspectRatio="xMidYMid meet">
<metadata>
Created by potrace 1.11, written by Peter Selinger 2001-2013
</metadata>
<g transform="translate(0.000000,192.000000) scale(0.100000,-0.100000)"
fill="#000000" stroke="none">
<path d="M853 1830 c-214 -30 -385 -119 -534 -278 -120 -128 -194 -275 -224
-447 -19 -111 -19 -189 0 -300 65 -369 356 -655 729 -716 94 -15 266 -7 356
16 78 21 210 81 277 126 169 115 299 301 354 504 32 115 32 327 1 440 -87 316
-337 563 -643 634 -102 24 -232 33 -316 21z m167 -417 l0 -118 93 93 93 92 39
-40 39 -40 -132 -133 -132 -132 0 -58 0 -57 57 0 58 0 132 132 133 132 40 -39
40 -39 -92 -93 -93 -93 118 0 117 0 0 -60 0 -60 -117 0 -118 0 93 -93 92 -93
-40 -39 -40 -39 -133 132 -132 132 -58 0 -57 0 0 -57 0 -58 132 -132 132 -133
-39 -40 -39 -40 -93 92 -93 93 0 -118 0 -117 -60 0 -60 0 0 117 0 118 -93 -93
-93 -92 -39 40 -39 40 132 133 132 132 0 58 0 57 -57 0 -58 0 -132 -132 -133
-132 -40 39 -40 39 92 93 93 93 -118 0 -117 0 0 60 0 60 117 0 118 0 -93 93
-92 93 38 37 c21 20 40 37 43 37 3 0 64 -58 134 -130 l129 -130 58 0 58 0 0
57 0 58 -132 132 -133 133 41 40 40 41 92 -93 92 -93 0 118 0 117 60 0 60 0 0
-117z"/>
</g>
</svg>
